<?xml version="1.0" encoding="UTF-8"?><svg id="Layer_2" xmlns="http://www.w3.org/2000/svg" width="114.75" height="34.12" viewBox="0 0 114.75 34.12"><defs><style>.cls-1{fill:#fff;}.cls-1,.cls-2{stroke-width:0px;}.cls-2{fill:#ff5e00;}</style></defs><g id="Layer_1-2"><path class="cls-2" d="M8.82,15.34c0,2.44-1.97,4.41-4.41,4.41S0,17.78,0,15.34s1.97-4.41,4.41-4.41,4.41,1.97,4.41,4.41"/><path class="cls-2" d="M20.62,15.34c0,2.44-1.97,4.41-4.41,4.41s-4.41-1.97-4.41-4.41,1.97-4.41,4.41-4.41,4.41,1.97,4.41,4.41"/><path class="cls-2" d="M8.82,15.34c0,2.44-1.97,4.41-4.41,4.41S0,17.78,0,15.34s1.97-4.41,4.41-4.41,4.41,1.97,4.41,4.41"/><path class="cls-2" d="M.36,24.17c0,5.49,4.46,9.95,9.95,9.95s9.95-4.46,9.95-9.95v-1.43H.36v1.43Z"/><path class="cls-1" d="M46.15,11.39v11.36c0,2.78-2.26,5.03-5.03,5.03s-5.03-2.26-5.03-5.03v-11.36h-6.33v11.37c0,6.26,5.1,11.36,11.36,11.36s11.36-5.1,11.36-11.36v-11.37h-6.33Z"/><rect class="cls-1" x="108.42" y="11.39" width="6.33" height="22.36"/><rect class="cls-1" x="82.74" y="11.39" width="6.33" height="22.36"/><path class="cls-1" d="M67.27,11.02c-6.27,0-11.36,5.1-11.36,11.36v11.36h6.33v-11.36c0-2.78,2.26-5.03,5.03-5.03s5.04,2.26,5.04,5.03v11.36h6.33v-11.36c0-6.27-5.1-11.36-11.36-11.36Z"/><path class="cls-1" d="M99.67,11.37c0-2.78,2.26-5.03,5.03-5.03V0c-6.27,0-11.36,5.1-11.36,11.36v22.39h6.33v-16.03h5.03v-6.33h-5.03v-.02Z"/></g></svg>